<?xml version="1.0" encoding="iso-8859-1"?>
<!-- Generator: Adobe Illustrator 19.0.0, SVG Export Plug-In . SVG Version: 6.00 Build 0)  -->
<svg version="1.1" id="Layer_1" xmlns="http://www.w3.org/2000/svg" xmlns:xlink="http://www.w3.org/1999/xlink" x="0px" y="0px"
	 viewBox="0 0 512 512" style="enable-background:new 0 0 512 512;" xml:space="preserve">
<path style="fill:#7B8185;" d="M296.27,330.787v-92.045h166.831h28.764c6.328,0,11.506,5.178,11.506,11.506v69.034
	c0,6.328-5.178,11.506-11.506,11.506h-28.764H296.27z"/>
<path style="fill:#E7ECED;" d="M382.562,43.146v57.528H8.629V31.64h362.427C377.384,31.64,382.562,36.818,382.562,43.146z"/>
<path style="fill:#AFB6BB;" d="M463.101,238.742H296.27v92.045h166.831v138.067c0,6.328-5.178,11.506-11.506,11.506H8.629V100.674
	h373.933h69.034c6.328,0,11.506,5.178,11.506,11.506V238.742z"/>
<path d="M491.865,230.112H471.73V112.18c0-11.102-9.033-20.135-20.135-20.135h-60.405V43.146c0-11.102-9.033-20.135-20.135-20.135H0
	v465.978h451.596c11.102,0,20.135-9.033,20.135-20.135V339.416h20.135c11.102,0,20.135-9.033,20.135-20.135v-69.034
	C512,239.145,502.967,230.112,491.865,230.112z M371.056,40.27c1.559,0,2.876,1.317,2.876,2.876v48.899H17.258V40.27H371.056z
	 M454.472,468.854c0,1.559-1.317,2.876-2.876,2.876H17.258V109.303h434.337c1.559,0,2.876,1.317,2.876,2.876v117.933H287.64v109.303
	h166.831V468.854z M494.742,319.281c0,1.559-1.317,2.876-2.876,2.876H304.899v-74.787h186.966c1.559,0,2.876,1.317,2.876,2.876
	V319.281z"/>
<rect x="330.787" y="276.135" width="34.517" height="17.258"/>
<polygon points="396.944,204.225 414.202,204.225 414.202,138.067 54.652,138.067 54.652,155.326 396.944,155.326 "/>
<polygon points="54.652,442.966 414.202,442.966 414.202,376.809 396.944,376.809 396.944,425.708 54.652,425.708 "/>
<g>
</g>
<g>
</g>
<g>
</g>
<g>
</g>
<g>
</g>
<g>
</g>
<g>
</g>
<g>
</g>
<g>
</g>
<g>
</g>
<g>
</g>
<g>
</g>
<g>
</g>
<g>
</g>
<g>
</g>
</svg>
