<?xml version="1.0" encoding="UTF-8" standalone="no"?>
<!-- Created with Inkscape (http://www.inkscape.org/) -->

<svg
   width="105.42268mm"
   height="105.42268mm"
   viewBox="0 0 105.42268 105.42268"
   version="1.1"
   id="svg5"
   sodipodi:docname="logo.svg"
   inkscape:version="1.1.1 (3bf5ae0d25, 2021-09-20)"
   xmlns:inkscape="http://www.inkscape.org/namespaces/inkscape"
   xmlns:sodipodi="http://sodipodi.sourceforge.net/DTD/sodipodi-0.dtd"
   xmlns="http://www.w3.org/2000/svg"
   xmlns:svg="http://www.w3.org/2000/svg">
  <sodipodi:namedview
     id="namedview7"
     pagecolor="#ffffff"
     bordercolor="#666666"
     borderopacity="1.0"
     inkscape:pageshadow="2"
     inkscape:pageopacity="0.0"
     inkscape:pagecheckerboard="0"
     inkscape:document-units="mm"
     showgrid="false"
     inkscape:zoom="0.77771465"
     inkscape:cx="-201.87353"
     inkscape:cy="-303.4532"
     inkscape:window-width="1877"
     inkscape:window-height="1170"
     inkscape:window-x="299"
     inkscape:window-y="208"
     inkscape:window-maximized="0"
     inkscape:current-layer="layer1"
     fit-margin-top="0"
     fit-margin-left="0"
     fit-margin-right="0"
     fit-margin-bottom="0"
     inkscape:snap-global="false" />
  <defs
     id="defs2" />
  <g
     inkscape:groupmode="layer"
     id="layer2"
     inkscape:label="Layer 2"
     sodipodi:insensitive="true"
     style="display:none">
    <rect
       style="fill:#d3d7cf;stroke:none;stroke-width:2;stroke-linecap:round;stroke-linejoin:round"
       id="rect2845"
       width="555.21735"
       height="510.95389"
       x="-215.54364"
       y="-281.93875"
       ry="7.8247342" />
  </g>
  <g
     inkscape:label="Layer 1"
     inkscape:groupmode="layer"
     id="layer1"
     transform="translate(-22.814436,-36.42268)">
    <rect
       style="fill:#ffffff;stroke:#5c3566;stroke-width:2;stroke-linecap:square;stroke-linejoin:miter;stroke-miterlimit:4;stroke-dasharray:none"
       id="rect14481"
       width="103.42268"
       height="103.42268"
       x="23.814436"
       y="37.42268"
       ry="0" />
    <text
       xml:space="preserve"
       style="font-style:normal;font-variant:normal;font-weight:normal;font-stretch:normal;font-size:53.0439px;line-height:1.25;font-family:'Nimbus Mono PS';-inkscape-font-specification:'Nimbus Mono PS';fill:#000000;fill-opacity:1;stroke:none;stroke-width:0.264583"
       x="27.415037"
       y="136.25023"
       id="text1928"><tspan
         sodipodi:role="line"
         id="tspan1926"
         style="font-style:normal;font-variant:normal;font-weight:normal;font-stretch:normal;font-family:'Nimbus Mono PS';-inkscape-font-specification:'Nimbus Mono PS';stroke-width:0.264583"
         x="27.415037"
         y="136.25023">omb</tspan></text>
    <g
       inkscape:label="Rendered Gears"
       transform="matrix(1.8283939,0,0,1.8283939,54.072581,184.90926)"
       id="g13714"
       style="stroke:#f57900;stroke-width:1.0938562;stroke-miterlimit:4;stroke-dasharray:none">
      <g
         id="g14347"
         transform="matrix(0.80713943,0,0,0.80643639,7.754778,-69.865796)"
         style="stroke-width:1.35581643;stroke-miterlimit:4;stroke-dasharray:none">
        <path
           id="path10316"
           style="fill:none;stroke:#f57900;stroke-width:5.12434562;stroke-linecap:square;stroke-linejoin:round;stroke-miterlimit:4;stroke-dasharray:none"
           d="m 311.56625,508.49778 c -5.45669,-3.84851 -15.63196,-1.47252 -24.16781,4.39675 -4.41575,-1.14933 -8.95678,-1.74763 -13.51953,-1.78125 -30.53505,6.3e-4 -55.28844,24.75401 -55.28907,55.28906 0.007,12.28574 4.10663,24.21905 11.65039,33.91602 v 20.58008 c 0,5.54073 4.46123,10 10.00196,10 h 10.85742 c 5.54073,0 10,-4.45927 10,-10 v -0.71875 c 4.18633,1.00025 8.47514,1.50825 12.7793,1.51367 2.51316,-0.007 5.02288,-0.18626 7.51171,-0.53516 0.13742,5.41921 4.54064,9.74024 9.99415,9.74024 h 10.85742 c 5.54073,0 10.00195,-4.45927 10.00195,-10 v -14.72266 c 8.83936,-8.52018 14.59153,-19.74003 16.34961,-31.89062 4.0901,-0.40996 7.26172,-3.84133 7.26172,-8.04297 v -8.4375 c 0,-4.47964 -3.6063,-8.08594 -8.08594,-8.08594 h -1.17969 c -3.18126,-10.02763 -9.15732,-18.93955 -17.22656,-25.68945 -7.95712,-8.0873 -7.39952,-1.50066 2.20297,-15.53152 z"
           sodipodi:nodetypes="cccccsssscccsssccsssccc"
           transform="matrix(0.26458333,0,0,0.26458333,-64.851774,-142.07828)" />
        <circle
           style="fill:none;stroke:#f57900;stroke-width:1.35581643;stroke-miterlimit:4;stroke-dasharray:none"
           id="path10641"
           cx="80.047035"
           cy="143.73584"
           r="1.8042158"
           transform="translate(-64.851774,-142.07828)" />
        <g
           id="g14337"
           transform="translate(-1.7010309,0.51030928)"
           style="stroke-width:1.35581643;stroke-miterlimit:4;stroke-dasharray:none">
          <ellipse
             style="fill:#ffffff;stroke:#ffffff;stroke-width:1.35581643;stroke-linecap:square;stroke-linejoin:round;stroke-miterlimit:4;stroke-dasharray:none"
             id="path14056"
             cx="-0.63257045"
             cy="2.0255997"
             rx="11.817923"
             ry="11.08326" />
          <path
             style="fill:#ffffff;stroke:#f57900;stroke-width:1.35581643;stroke-miterlimit:4;stroke-dasharray:none"
             d="m 6.0201397,0.95967949 1.53684,-0.24624 0.12871,-0.00532 1.76274,0.60228001 v 1.4304 l -1.76274,0.60228 -0.12871,-0.00532 -1.53684,-0.24624 -0.64402,1.98209 1.38806,0.70412 0.10726,0.07135 1.07208,1.52337 -0.84077,1.15722 -1.7801,-0.54885 -0.10101,-0.07996 -1.09859,-1.10255 -1.68607,1.225 0.7091,1.38553 0.04483,0.12077 -0.02808,1.8625805 -1.3604,0.44202 -1.11752008,-1.49035 -0.03471,-0.12406 -0.24072,-1.5377105 H -1.6746203 l -0.24072,1.5377105 -0.03471,0.12406 -1.11752,1.49035 -1.3604,-0.44202 -0.02808,-1.8625805 0.04483,-0.12077 0.7091,-1.38553 -1.68607,-1.225 -1.09859,1.10255 -0.10101,0.07996 -1.7801,0.54885 -0.84077,-1.15722 1.07208,-1.52337 0.10726,-0.07135 1.38806,-0.70412 -0.64402,-1.98209 -1.53684,0.24624 -0.12871,0.00532 -1.7627407,-0.60228 v -1.4304 l 1.7627407,-0.60228001 0.12871,0.00532 1.53684,0.24624 0.64402,-1.98208999 -1.38806,-0.70412 -0.10726,-0.07135 -1.07208,-1.52337 0.84077,-1.15722 1.7801,0.54885 0.10101,0.07996 1.09859,1.10255 1.68607,-1.225 -0.7091,-1.38553 -0.04483,-0.12077 0.02808,-1.86258 1.3604,-0.44202 1.11752,1.49035 0.03471,0.12406 0.24072,1.53771 h 2.08409992 l 0.24072,-1.53771 0.03471,-0.12406 1.11752008,-1.49035 1.3604,0.44202 0.02808,1.86258 -0.04483,0.12077 -0.7091,1.38553 1.68607,1.225 1.09859,-1.10255 0.10101,-0.07996 1.7801,-0.54885 0.84077,1.15722 -1.07208,1.52337 -0.10726,0.07135 -1.38806,0.70412 z"
             id="path13710" />
          <circle
             style="fill:#ffffff;stroke:#f57900;stroke-width:1.35581643;stroke-miterlimit:4;stroke-dasharray:none"
             id="path13712"
             cx="-0.59536082"
             cy="1.9561856"
             r="2.6079252" />
        </g>
      </g>
    </g>
    <g
       id="g2722"
       transform="translate(-209.38159,3.9541256)"
       inkscape:export-filename="/home/leandro/Desktop/g2722.png"
       inkscape:export-xdpi="262.82001"
       inkscape:export-ydpi="262.82001">
      <path
         id="path991"
         style="fill:none;stroke:#f57900;stroke-width:7.55906;stroke-linecap:round;stroke-linejoin:round;stroke-miterlimit:4;stroke-dasharray:none"
         d="m 417.28516,-456.79883 c 2.14316,13.54171 7.67996,26.39733 16.18945,37.32617 v 30.34375 c 0,8.16971 6.58291,14.7461 14.75977,14.7461 h 16.02343 c 8.17682,0 14.75781,-6.57639 14.75781,-14.7461 v -1.05859 c 6.17806,1.47485 12.50743,2.22443 18.85938,2.23242 3.70885,-0.0102 7.41299,-0.27462 11.08594,-0.78906 0.20296,7.99053 6.69992,14.36133 14.74804,14.36133 h 16.02344 c 8.17682,0 14.75977,-6.57639 14.75977,-14.7461 v -21.70703 c 13.04485,-12.56286 21.53437,-29.1076 24.1289,-47.02344 6.03602,-0.60448 10.7168,-5.66217 10.7168,-11.85742 v -12.4414 c 0,-6.60515 -5.32267,-11.92383 -11.93359,-11.92383 h -1.74024 c -4.69481,-14.78558 -13.51353,-27.92432 -25.42187,-37.87695 -11.74284,-11.92457 -10.92104,-2.21408 3.25,-22.90235 -2.64231,-1.86198 -6.03342,-2.73574 -9.84375,-2.76367 -7.80208,-0.0571 -17.3587,3.43355 -25.82227,9.24805 -6.51662,-1.69467 -13.2176,-2.57737 -19.95117,-2.62696 -4.71945,10e-5 -9.34364,0.40524 -13.84375,1.17383 m 56.14063,36.16211 c 5.5583,-5.8e-4 10.06449,4.50123 10.06445,10.05469 4e-5,5.55346 -4.50615,10.05527 -10.06445,10.05469 -5.55753,-4.9e-4 -10.06254,-4.502 -10.0625,-10.05469 -4e-5,-5.55269 4.50497,-10.0542 10.0625,-10.05469 z"
         transform="matrix(0.26458333,0,0,0.26458333,22.814436,36.42268)"
         sodipodi:nodetypes="ccsssscccsssccssscccscccsssss"
         inkscape:export-filename="/home/leandro/Desktop/path991.png"
         inkscape:export-xdpi="96"
         inkscape:export-ydpi="96" />
      <path
         id="path1098"
         style="fill:none;stroke:#f57900;stroke-width:2;stroke-linecap:square;stroke-linejoin:round;stroke-opacity:1"
         d="m 140.68357,-110.01462 -4.13126,4.57467 -4.13093,4.57467 h 3.49508 v 13.128957 h 9.53422 v -13.128957 h 3.49508 l -4.13093,-4.57467 z"
         inkscape:export-filename="/home/leandro/Desktop/path991.png"
         inkscape:export-xdpi="96"
         inkscape:export-ydpi="96" />
    </g>
    <g
       id="g3331"
       transform="translate(2.8702284,-65.319588)"
       inkscape:export-filename="/home/leandro/Desktop/g3331.png"
       inkscape:export-xdpi="96"
       inkscape:export-ydpi="96">
      <g
         id="g3325">
        <path
           style="fill:none;stroke:#f57900;stroke-width:2.00001;stroke-miterlimit:4;stroke-dasharray:none"
           d="m 5.5635198,-30.139688 2.2680206,-0.363076 0.1899462,-0.0078 2.6013964,0.888052 v 2.109101 l -2.6013964,0.888052 -0.1899462,-0.0078 -2.2680206,-0.363077 -0.9504246,2.922559 2.0484557,1.038213 0.1582909,0.105205 1.5821422,2.246183 -1.2407821,1.706302 -2.627016,-0.80927 -0.1490674,-0.1179 -1.6212649,-1.625691 -2.48824949,1.806242 1.04646769,2.042941 0.066159,0.178073 -0.04144,2.746344 -2.00763588,0.651751 -1.64920132,-2.197496 -0.051224,-0.182925 -0.3552471,-2.267328 h -3.0756496 l -0.3552471,2.267328 -0.051224,0.182925 -1.6492011,2.197496 -2.0076359,-0.651751 -0.04144,-2.746344 0.066159,-0.178073 1.0464677,-2.042941 -2.4882495,-1.806242 -1.621264,1.625691 -0.149068,0.1179 -2.627016,0.80927 -1.240782,-1.706302 1.582142,-2.246183 0.158291,-0.105205 2.048456,-1.038213 -0.950425,-2.922559 -2.26802,0.363077 -0.189947,0.0078 -2.601397,-0.888052 v -2.109101 l 2.601397,-0.888052 0.189947,0.0078 2.26802,0.363076 0.950425,-2.922558 -2.048456,-1.038214 -0.158291,-0.105204 -1.582142,-2.246184 1.240782,-1.706301 2.627016,0.80927 0.149068,0.117899 1.621264,1.625692 2.4882495,-1.806242 -1.0464677,-2.042941 -0.066159,-0.178073 0.04144,-2.746344 2.0076359,-0.651751 1.6492011,2.197497 0.051224,0.182924 0.3552471,2.267328 h 3.0756496 l 0.3552471,-2.267328 0.051224,-0.182924 1.64920132,-2.197497 2.00763588,0.651751 0.04144,2.746344 -0.066159,0.178073 -1.04646769,2.042941 2.48824949,1.806242 1.6212649,-1.625692 0.1490674,-0.117899 2.627016,-0.80927 1.2407821,1.706301 -1.5821422,2.246184 -0.1582909,0.105204 -2.0484557,1.038214 z"
           id="path936" />
        <ellipse
           style="fill:none;stroke:#f57900;stroke-width:2.00001;stroke-miterlimit:4;stroke-dasharray:none"
           id="circle938"
           cx="-4.1994295"
           cy="-28.670357"
           rx="3.8486946"
           ry="3.8453424" />
      </g>
      <path
         id="path3321"
         style="fill:none;stroke:#f57900;stroke-width:2;stroke-linecap:round;stroke-linejoin:round;stroke-miterlimit:4;stroke-dasharray:none"
         d="m -10.703284,-11.459139 c 0.8552574,3.5108587 2.0230974,4.5508268 3.9226154,7.5304035 v 8.02845 c 0,2.161569 1.741729,3.901572 3.905189,3.901572 h 4.239533 c 2.16345,0 3.90467,-1.740003 3.90467,-3.901572 v -0.280085 c 1.634612,0.390221 3.309258,0.588547 4.9898776,0.590661 0.9813,-0.0027 1.961354,-0.07266 2.933155,-0.208772 0.0537,2.114161 1.772687,3.799768 3.902085,3.799768 h 4.239536 c 2.16345,0 3.905189,-1.740003 3.905189,-3.901572 v -5.743318 c 3.451449,-3.323923 5.697635,-7.7013862 6.384103,-12.4416185 1.597026,-0.159936 2.835486,-1.498116 2.835486,-3.137276 v -3.291787 c 0,-1.747613 -1.40829,-3.154847 -3.157427,-3.154847 H 30.84029 c -1.242169,-3.912018 -3.575455,-7.388309 -6.726204,-10.021605 -3.106959,-3.15505 -2.889525,-0.58581 0.859896,-6.05958 -0.699111,-0.49265 -1.596342,-0.72384 -2.604492,-0.73123 -2.0643,-0.0151 -4.592822,0.90846 -6.832142,2.44688 -1.724189,-0.44838 -2.234206,-0.68192 -4.015796,-0.69505 m 9.928098,9.878472 c 1.470634,-1.53e-4 2.662897,1.19095 2.662886,2.660303 1.1e-5,1.469353 -1.192252,2.660457 -2.662886,2.660304 -1.470429,-1.3e-4 -2.66238,-1.191154 -2.662369,-2.660304 -1.1e-5,-1.469149 1.19194,-2.660173 2.662369,-2.660303 z"
         sodipodi:nodetypes="ccsssscccsssccssscccsccsssss"
         inkscape:export-filename="/home/leandro/Desktop/path991.png"
         inkscape:export-xdpi="96"
         inkscape:export-ydpi="96" />
    </g>
    <g
       id="g4058"
       transform="translate(-2.7216495,-65.958243)"
       inkscape:export-filename="/home/leandro/Desktop/g4058.png"
       inkscape:export-xdpi="96"
       inkscape:export-ydpi="96">
      <path
         id="path2058"
         style="fill:none;stroke:#f57900;stroke-width:2;stroke-linecap:round;stroke-linejoin:round;stroke-miterlimit:4;stroke-dasharray:none"
         d="m 57.375791,-12.180825 c 0.855257,3.5108584 2.023097,4.5508265 3.922615,7.5304032 v 8.02845 c 0,2.161569 1.741729,3.901572 3.905189,3.901572 h 4.239533 c 2.16345,0 3.90467,-1.740003 3.90467,-3.901572 v -0.280085 c 1.634612,0.390221 3.309258,0.588547 4.989878,0.590661 0.9813,-0.0027 1.961354,-0.07266 2.933155,-0.208772 0.0537,2.114161 1.772687,3.799768 3.902085,3.799768 h 4.239536 c 2.16345,0 3.905189,-1.740003 3.905189,-3.901572 v -5.743318 c 3.451449,-3.323923 5.697635,-7.7013862 6.384103,-12.4416182 1.597026,-0.159936 2.835486,-1.498116 2.835486,-3.137276 v -3.291787 c 0,-1.747613 -1.40829,-3.154847 -3.157427,-3.154847 h -0.460438 c -1.242169,-3.912018 -3.575455,-7.388309 -6.726204,-10.021605 -3.106959,-3.15505 -2.889525,-0.58581 0.859896,-6.05958 -0.699111,-0.49265 -1.596342,-0.72384 -2.604492,-0.73123 -2.0643,-0.0151 -4.592822,0.90846 -6.832142,2.44688 -1.724189,-0.44838 -2.234206,-0.68192 -4.015796,-0.69505 m 9.928098,9.878472 c 1.470634,-1.53e-4 2.662897,1.19095 2.662886,2.660303 1.1e-5,1.469353 -1.192252,2.660457 -2.662886,2.660304 -1.470429,-1.3e-4 -2.66238,-1.191154 -2.662369,-2.660304 -1.1e-5,-1.469149 1.19194,-2.660173 2.662369,-2.660303 z"
         sodipodi:nodetypes="ccsssscccsssccssscccsccsssss"
         inkscape:export-filename="/home/leandro/Desktop/path991.png"
         inkscape:export-xdpi="96"
         inkscape:export-ydpi="96" />
      <g
         id="g4051"
         transform="matrix(1.1236098,0,0,1.1241305,-6.962887,1.9391883)"
         style="stroke-width:0.889783">
        <ellipse
           style="fill:none;fill-opacity:1;stroke:#f57900;stroke-width:1.77957;stroke-linecap:square;stroke-miterlimit:4;stroke-dasharray:none;stroke-opacity:1"
           id="ellipse936"
           cx="64.535896"
           cy="-31.413654"
           rx="11.491628"
           ry="6.1342306" />
        <path
           id="ellipse7813"
           style="fill:none;fill-opacity:1;stroke:#f57900;stroke-width:1.77957;stroke-linecap:round;stroke-miterlimit:4;stroke-dasharray:none;stroke-opacity:1"
           d="m 76.128473,-21.756405 v 0 c 0,3.387842 -5.144977,6.134231 -11.491629,6.134231 -6.346652,0 -11.49163,-2.746389 -11.491629,-6.134231"
           sodipodi:nodetypes="cssc" />
        <path
           id="path3948"
           style="fill:none;fill-opacity:1;stroke:#f57900;stroke-width:1.77957;stroke-linecap:round;stroke-miterlimit:4;stroke-dasharray:none;stroke-opacity:1"
           d="m 76.128473,-26.749383 v 0 c 0,3.387842 -5.144977,6.134231 -11.491629,6.134231 -6.346652,0 -11.49163,-2.746389 -11.491629,-6.134231"
           sodipodi:nodetypes="cssc" />
      </g>
    </g>
  </g>
</svg>
